<?xml version="1.0" standalone="no"?>
<!DOCTYPE svg PUBLIC "-//W3C//DTD SVG 20010904//EN"
 "http://www.w3.org/TR/2001/REC-SVG-20010904/DTD/svg10.dtd">
<svg version="1.0" xmlns="http://www.w3.org/2000/svg"
 width="300.000000pt" height="307.000000pt" viewBox="0 0 300.000000 307.000000"
 preserveAspectRatio="xMidYMid meet">
<metadata>
Created by potrace 1.10, written by Peter Selinger 2001-2011
</metadata>
<g transform="translate(0.000000,307.000000) scale(0.100000,-0.100000)"
fill="#000000" stroke="none">
<path d="M1191 2718 l0 -193 106 -90 c58 -49 111 -94 117 -100 65 -57 174
-153 188 -165 9 -8 57 -49 107 -90 49 -41 90 -78 90 -81 1 -4 -90 -97 -201
-208 l-203 -201 30 -26 c68 -58 291 -252 448 -390 l169 -147 94 94 c52 51 94
98 94 104 0 6 -50 53 -112 105 -88 75 -229 196 -300 259 -4 4 83 98 194 210
l202 203 -39 37 c-40 37 -593 527 -690 611 -92 79 -239 212 -263 236 -13 13
-25 24 -27 24 -3 0 -5 -87 -4 -192z m71 80 c7 -7 63 -56 123 -108 61 -52 119
-103 130 -115 11 -11 52 -47 90 -80 85 -73 76 -65 165 -145 99 -89 110 -98
175 -155 116 -100 205 -185 205 -196 0 -3 -46 -54 -102 -112 -233 -238 -258
-266 -258 -285 0 -17 32 -68 51 -82 20 -15 109 -91 152 -130 27 -25 61 -54 74
-65 14 -11 39 -32 56 -47 17 -16 34 -28 39 -28 4 0 8 -10 8 -21 0 -13 -26 -46
-66 -85 l-65 -64 -51 43 c-50 42 -221 191 -288 251 -19 18 -44 38 -56 46 -31
22 -184 166 -184 174 0 3 74 82 165 174 91 92 172 174 180 183 8 9 15 30 15
46 0 31 -26 58 -190 197 -27 23 -168 145 -186 161 -6 6 -39 35 -74 65 -35 30
-81 71 -102 91 l-38 37 0 108 c0 60 -3 119 -6 132 -7 25 15 31 38 10z"/>
<path d="M1163 2155 c-5 -8 -136 -143 -291 -298 -155 -156 -282 -288 -282
-295 0 -6 9 -17 20 -25 11 -8 53 -43 93 -78 39 -35 137 -122 217 -193 80 -70
176 -156 214 -190 38 -33 71 -62 75 -63 3 -2 52 40 108 93 l102 96 -97 81
c-53 45 -102 86 -108 92 -6 5 -61 53 -123 105 l-112 95 209 207 208 207 -65
55 c-37 30 -82 71 -100 90 -38 39 -55 44 -68 21z m100 -102 c34 -31 64 -61 66
-66 2 -5 -81 -93 -183 -196 -145 -146 -186 -194 -186 -214 0 -25 37 -65 135
-148 35 -29 59 -50 160 -139 12 -10 40 -34 62 -53 l42 -35 -67 -66 c-37 -36
-73 -66 -80 -66 -10 0 -125 92 -162 130 -3 3 -36 32 -75 65 -38 33 -81 70 -95
83 -14 13 -44 40 -67 60 -24 20 -73 64 -109 98 l-66 61 270 271 c148 150 274
272 281 272 6 0 39 -26 74 -57z"/>
<path d="M1408 783 l-217 -218 -3 -198 c-2 -108 0 -197 3 -197 6 0 102 97 517
519 l132 135 -47 41 c-26 22 -70 61 -98 87 -27 26 -55 48 -60 48 -6 0 -108
-98 -227 -217z m270 133 c20 -19 49 -45 65 -58 15 -13 27 -31 27 -39 0 -25
-530 -555 -540 -540 -4 7 -6 27 -4 45 1 17 3 75 3 128 1 96 1 97 35 132 18 20
32 36 29 36 -2 0 19 20 46 44 27 24 104 98 170 165 66 67 123 121 126 121 3 0
23 -15 43 -34z"/>
</g>
</svg>
