<?xml version="1.0" standalone="no"?>
<!DOCTYPE svg PUBLIC "-//W3C//DTD SVG 20010904//EN"
 "http://www.w3.org/TR/2001/REC-SVG-20010904/DTD/svg10.dtd">
<svg version="1.0" xmlns="http://www.w3.org/2000/svg"
 width="300.000000pt" height="533.000000pt" viewBox="0 0 300.000000 533.000000"
 preserveAspectRatio="xMidYMid meet">
<metadata>
Created by potrace 1.10, written by Peter Selinger 2001-2011
</metadata>
<g transform="translate(0.000000,533.000000) scale(0.100000,-0.100000)"
fill="#000000" stroke="none">
<path d="M1375 4023 c-114 -12 -332 -76 -385 -113 -14 -10 -36 -21 -50 -25
-42 -13 -182 -111 -257 -180 -40 -36 -112 -112 -161 -169 -76 -88 -110 -136
-182 -256 -42 -70 -103 -245 -132 -375 -17 -82 -17 -389 1 -480 17 -87 65
-238 90 -285 10 -19 22 -46 26 -60 16 -51 137 -223 216 -305 95 -99 186 -174
282 -233 38 -23 70 -42 72 -42 2 0 33 -14 69 -30 215 -100 503 -141 722 -104
60 10 139 26 154 32 8 3 22 6 30 8 8 1 44 13 80 26 430 164 735 517 835 965
49 223 27 507 -59 734 -57 153 -191 383 -274 472 -115 124 -278 250 -372 287
-19 7 -42 19 -50 26 -19 16 -151 60 -255 85 -78 19 -306 31 -400 22z m370 -38
c306 -58 578 -233 767 -492 59 -81 166 -291 206 -403 52 -150 66 -238 67 -420
0 -102 -5 -192 -14 -235 -108 -542 -515 -944 -1055 -1042 -57 -10 -142 -16
-226 -16 -609 2 -1125 428 -1256 1033 -25 120 -30 328 -9 451 41 252 135 451
306 655 253 300 512 444 879 488 63 8 254 -3 335 -19z"/>
<path d="M1390 3632 l0 -110 150 -131 c83 -72 160 -137 170 -144 19 -13 13
-21 -95 -128 l-116 -114 45 -35 c24 -19 105 -89 181 -154 l136 -119 55 54 c30
29 53 56 52 60 -2 3 -52 48 -113 99 -60 51 -112 94 -115 97 -2 2 46 54 108
116 l112 112 -147 130 c-81 72 -209 185 -285 253 l-138 123 0 -109z m169 -94
c58 -51 117 -103 131 -116 14 -14 64 -58 113 -100 48 -41 87 -81 87 -89 0 -8
-40 -57 -90 -109 -49 -51 -90 -99 -90 -105 0 -13 20 -50 34 -64 6 -5 46 -41
88 -78 76 -68 77 -69 61 -93 -8 -13 -22 -24 -30 -24 -14 0 -117 85 -253 208
l-45 41 86 88 c104 106 112 119 94 153 -14 27 -37 49 -193 184 -57 49 -107 97
-112 107 -14 25 -12 89 1 89 7 0 59 -41 118 -92z"/>
<path d="M1220 3159 l-164 -169 39 -33 c22 -17 101 -87 175 -153 l136 -122 58
56 c47 45 55 57 44 67 -20 20 -170 147 -200 171 l-27 21 114 114 115 113 -57
53 c-32 28 -60 52 -63 51 -3 0 -79 -77 -170 -169z m217 75 c4 -10 -23 -44 -74
-97 -44 -45 -88 -94 -98 -109 -16 -26 -16 -30 -1 -52 8 -13 53 -57 98 -97 46
-40 84 -78 86 -84 1 -6 -7 -20 -18 -30 -19 -17 -23 -18 -44 -5 -25 16 -134
111 -220 191 l-50 47 136 137 c124 125 138 136 158 125 12 -6 24 -18 27 -26z"/>
<path d="M1512 2567 l-122 -122 0 -115 1 -115 182 185 182 185 -40 35 c-22 19
-48 43 -57 53 -10 9 -19 17 -21 17 -1 0 -57 -55 -125 -123z m162 37 c9 -8 16
-18 16 -21 0 -13 -244 -252 -252 -247 -4 3 -8 24 -8 46 0 38 6 47 97 139 53
55 105 99 114 99 10 0 25 -7 33 -16z"/>
<path d="M1120 2001 c0 -49 1 -51 28 -51 37 0 68 22 56 41 -4 8 -8 23 -9 34 0
16 -8 21 -37 23 l-38 3 0 -50z"/>
<path d="M1220 2000 l0 -50 40 0 c22 0 40 5 40 10 0 6 -11 10 -25 10 -14 0
-25 5 -25 10 0 6 9 10 19 10 11 0 23 5 26 10 4 6 -5 10 -19 10 -35 0 -33 17 2
22 52 7 63 0 60 -39 -2 -22 2 -38 10 -40 8 -3 12 8 12 36 0 30 4 41 15 41 8 0
15 5 15 10 0 6 -35 10 -85 10 l-85 0 0 -50z"/>
<path d="M1400 2000 l0 -50 40 0 c22 0 40 5 40 10 0 6 -11 10 -24 10 -14 0
-28 5 -31 10 -4 6 5 10 19 10 14 0 26 5 26 10 0 6 -9 10 -19 10 -11 0 -23 5
-26 10 -4 6 7 10 24 10 17 0 31 5 31 10 0 6 -18 10 -40 10 l-40 0 0 -50z"/>
<path d="M1494 2003 c1 -26 8 -49 14 -51 7 -2 12 3 12 12 0 20 19 21 26 1 4
-8 12 -15 20 -15 16 0 19 16 4 25 -6 4 -5 13 2 24 19 31 3 51 -41 51 l-40 0 3
-47z"/>
<path d="M1605 2004 c-19 -51 -16 -61 14 -42 17 11 25 11 42 0 30 -19 32 -12
12 41 -23 61 -45 62 -68 1z"/>
<path d="M1700 2000 c0 -38 4 -50 15 -50 10 0 15 10 15 33 l0 32 20 -30 c28
-43 42 -38 44 18 1 33 -2 47 -11 47 -7 0 -13 -12 -13 -27 l-1 -28 -20 28 c-33
43 -49 35 -49 -23z"/>
<path d="M1822 2038 c-27 -27 -3 -88 34 -88 31 0 54 21 54 48 0 35 -16 52 -50
52 -14 0 -31 -5 -38 -12z m62 -24 c8 -21 -1 -34 -24 -34 -10 0 -21 4 -24 9
-10 16 5 41 24 41 10 0 21 -7 24 -16z"/>
<path d="M1882 1923 c-10 -4 -9 -8 4 -17 12 -9 18 -38 25 -122 13 -176 12
-212 -8 -218 -10 -2 -59 -7 -109 -11 -58 -4 -105 -13 -127 -24 -29 -15 -57
-17 -168 -16 -143 2 -160 4 -171 20 -4 6 -51 13 -105 17 -145 11 -138 9 -138
43 1 67 15 274 21 288 3 10 16 14 37 12 85 -8 177 -4 222 9 l50 15 -42 0 c-24
1 -43 -4 -43 -9 0 -10 -23 -9 -191 6 l-55 5 -15 -188 c-8 -103 -15 -189 -14
-190 0 -1 61 -5 134 -9 119 -6 134 -9 139 -26 4 -18 16 -19 173 -17 148 2 168
4 172 19 3 14 22 18 97 23 51 4 113 7 137 7 43 0 44 1 39 28 -2 15 -10 102
-17 195 -12 165 -14 173 -47 160z"/>
<path d="M1625 1911 c9 -16 114 -25 138 -12 19 9 14 10 -30 9 -29 -1 -56 1
-59 5 -11 11 -56 8 -49 -2z"/>
<path d="M1745 1833 c-19 -4 -20 -9 -13 -86 3 -45 7 -93 7 -107 1 -24 4 -25
41 -22 l40 4 0 47 c0 26 -3 51 -7 55 -4 4 -6 27 -4 53 2 30 -2 49 -11 54 -13
9 -19 9 -53 2z m35 -58 c0 -19 -4 -35 -10 -35 -5 0 -10 16 -10 35 0 19 5 35
10 35 6 0 10 -16 10 -35z m10 -96 c0 -16 -4 -29 -10 -29 -5 0 -10 16 -10 36 0
21 4 33 10 29 6 -3 10 -19 10 -36z"/>
<path d="M1189 1808 c0 -13 -4 -60 -7 -105 -5 -54 -4 -83 3 -83 5 0 20 -3 33
-6 16 -5 22 -2 22 10 0 9 -7 16 -16 16 -13 0 -14 13 -8 95 6 84 5 95 -10 95
-10 0 -16 -9 -17 -22z"/>
<path d="M1466 1739 c-4 -50 -9 -104 -13 -120 -5 -25 -2 -29 16 -29 15 0 21 6
21 21 0 12 5 19 13 16 6 -2 11 -11 9 -21 -2 -11 4 -16 19 -16 20 0 21 4 15 48
-3 26 -9 80 -12 120 -7 70 -8 72 -34 72 -27 0 -27 0 -34 -91z m44 -30 c0 -37
-4 -58 -10 -54 -11 7 -13 57 -4 93 10 36 14 26 14 -39z"/>
</g>
</svg>
